# xmcd CD database file
# Copyright (C) 1993-1998 Ti Kan
#
# Track frame offsets:
#	183
#	12558
#	24833
#	36758
#	52720
#	63983
#	76033
#	90333
#	105133
#	119908
#	131095
#	142095
#
# Disc length: 2032 seconds
#
# Revision: 1
# Processed by: cddbd v1.4b41PL1 Copyright (c) Steve Scherf et al.
# Submitted via: CDValet v3.31 - Copyright (c) 1997 Greg Leichner
#
DISCID=8f07ee0c
DTITLE=Various Artist - Country Ladies
DYEAR=1900
DGENRE=
TTITLE0=Patty Loveless - Lonely Days, Lonely Nights
TTITLE1=Lynn Anderson - I  Never promised You A Rose Garden
TTITLE2=Connie Smith - Once A Day
TTITLE3=Sylvia - Nobody
TTITLE4=Kathy Mattea - Street Talk
TTITLE5=Sweethearts of the Rodeo - Hey Doll Baby
TTITLE6=Forester Sisters I Fell In Love Again Last Night
TTITLE7=Jeannie C. Riley - Harper Valley P.T.A.
TTITLE8=Tanya Tucker - What's Your Mama's Name
TTITLE9=Tammy Wynette - D.I.V.O.R.C.E.
TTITLE10=Dottie West - A Lesson In Leavin
TTITLE11=Gail Davies - I'll Be There If you Ever Want Me
EXTD=
EXTT0=
EXTT1=
EXTT2=
EXTT3=
EXTT4=
EXTT5=
EXTT6=
EXTT7=
EXTT8=
EXTT9=
EXTT10=
EXTT11=
PLAYORDER=
